<svg viewBox="0 0 600 400" xmlns="http://www.w3.org/2000/svg">
<g transform="translate(72, 364)">
<g>
<g>
<path d="M0,0 L0,0 L16.551723,-123.18977 L33.103447,-222.44975 L49.655174,-267.07333 L66.206894,-292.63333 L82.75862,-309.1372 L99.31035,-320.25525 L115.86207,-327.653 L132.41379,-332.42587 L148.96552,-335.41727 L165.51724,-337.25232 L182.06897,-338.36203 L198.6207,-339.02695 L215.17241,-339.4233 L231.72414,-339.65857 L248.27586,-339.7981 L264.82758,-339.88068 L281.3793,-339.9295 L297.93103,-339.95837 L314.48276,-339.9755 L331.0345,-339.98557 L347.5862,-339.99152 L364.13794,-339.99512 L380.68967,-339.99713 L397.2414,-339.99835 L413.7931,-339.99908 L430.34482,-339.99957 L446.89655,-339.9998 L463.44827,-339.99994 L480,-340" fill="none" stroke="blue" stroke-linejoin="round" stroke-width="2"/>
</g>
<g>
<circle cx="0" cy="0" fill="" r="5"/>
<circle cx="16.551724137931036" cy="-123.18977105991718" fill="" r="5"/>
<circle cx="33.10344827586207" cy="-222.4497481765775" fill="" r="5"/>
<circle cx="49.6551724137931" cy="-267.0733368940851" fill="" r="5"/>
<circle cx="66.20689655172414" cy="-292.633334659462" fill="" r="5"/>
<circle cx="82.75862068965517" cy="-309.137216318614" fill="" r="5"/>
<circle cx="99.3103448275862" cy="-320.2552589190867" fill="" r="5"/>
<circle cx="115.86206896551724" cy="-327.65302819550976" fill="" r="5"/>
<circle cx="132.41379310344828" cy="-332.4258678754373" fill="" r="5"/>
<circle cx="148.9655172413793" cy="-335.41728197196767" fill="" r="5"/>
<circle cx="165.51724137931035" cy="-337.2523132842827" fill="" r="5"/>
<circle cx="182.06896551724137" cy="-338.3620233471869" fill="" r="5"/>
<circle cx="198.6206896551724" cy="-339.02694880868364" fill="" r="5"/>
<circle cx="215.17241379310346" cy="-339.42330956830205" fill="" r="5"/>
<circle cx="231.72413793103448" cy="-339.65856724394604" fill="" r="5"/>
<circle cx="248.27586206896552" cy="-339.79808508774283" fill="" r="5"/>
<circle cx="264.82758620689657" cy="-339.8806736474289" fill="" r="5"/>
<circle cx="281.37931034482756" cy="-339.92949059789674" fill="" r="5"/>
<circle cx="297.9310344827586" cy="-339.95836621720713" fill="" r="5"/>
<circle cx="314.48275862068965" cy="-339.97548431330824" fill="" r="5"/>
<circle cx="331.0344827586207" cy="-339.9855621903448" fill="" r="5"/>
<circle cx="347.58620689655174" cy="-339.99153029483097" fill="" r="5"/>
<circle cx="364.13793103448273" cy="-339.9951040100922" fill="" r="5"/>
<circle cx="380.6896551724138" cy="-339.99714102779103" fill="" r="5"/>
<circle cx="397.2413793103448" cy="-339.9983560909798" fill="" r="5"/>
<circle cx="413.7931034482759" cy="-339.99907083403207" fill="" r="5"/>
<circle cx="430.3448275862069" cy="-339.9995711541687" fill="" r="5"/>
<circle cx="446.8965517241379" cy="-339.9997855770843" fill="" r="5"/>
<circle cx="463.44827586206895" cy="-339.99992852569477" fill="" r="5"/>
<circle cx="480" cy="-340" fill="" r="5"/>
</g>
</g>
<g>
<g>
<line stroke="black" stroke-width="1" x1="0" x2="0" y1="0" y2="10"/>
<line stroke="black" stroke-width="1" x1="82.75862068965517" x2="82.75862068965517" y1="0" y2="10"/>
<line stroke="black" stroke-width="1" x1="165.51724137931035" x2="165.51724137931035" y1="0" y2="10"/>
<line stroke="black" stroke-width="1" x1="248.27586206896552" x2="248.27586206896552" y1="0" y2="10"/>
<line stroke="black" stroke-width="1" x1="331.0344827586207" x2="331.0344827586207" y1="0" y2="10"/>
<line stroke="black" stroke-width="1" x1="413.7931034482759" x2="413.7931034482759" y1="0" y2="10"/>
</g>
<line stroke="black" stroke-width="1" x1="0" x2="480" y1="0" y2="0"/>
<g>
<text font-size="12" text-anchor="middle" x="0" y="20">
0
</text>
<text font-size="12" text-anchor="middle" x="82.75862068965517" y="20">
5
</text>
<text font-size="12" text-anchor="middle" x="165.51724137931035" y="20">
10
</text>
<text font-size="12" text-anchor="middle" x="248.27586206896552" y="20">
15
</text>
<text font-size="12" text-anchor="middle" x="331.0344827586207" y="20">
20
</text>
<text font-size="12" text-anchor="middle" x="413.7931034482759" y="20">
25
</text>
</g>
<text font-size="12" text-anchor="middle" x="240" y="30">

</text>
</g>
<g>
<g>
<line stroke="black" stroke-width="1" x1="0" x2="-10" y1="0.000530345062709707" y2="0.000530345062709707"/>
<line stroke="black" stroke-width="1" x1="0" x2="-10" y1="-59.95646251439145" y2="-59.95646251439145"/>
<line stroke="black" stroke-width="1" x1="0" x2="-10" y1="-119.91345537384558" y2="-119.91345537384558"/>
<line stroke="black" stroke-width="1" x1="0" x2="-10" y1="-179.8704482332997" y2="-179.8704482332997"/>
<line stroke="black" stroke-width="1" x1="0" x2="-10" y1="-239.8274410927538" y2="-239.8274410927538"/>
<line stroke="black" stroke-width="1" x1="0" x2="-10" y1="-299.78443395220796" y2="-299.78443395220796"/>
</g>
<line stroke="black" stroke-width="1" x1="0" x2="0" y1="0" y2="-340"/>
<g>
<text dominant-baseline="middle" font-size="12" text-anchor="end" x="-15" y="0.000530345062709707">
1.41421
</text>
<text dominant-baseline="middle" font-size="12" text-anchor="end" x="-15" y="-59.95646251439145">
1.81421
</text>
<text dominant-baseline="middle" font-size="12" text-anchor="end" x="-15" y="-119.91345537384558">
2.21421
</text>
<text dominant-baseline="middle" font-size="12" text-anchor="end" x="-15" y="-179.8704482332997">
2.61421
</text>
<text dominant-baseline="middle" font-size="12" text-anchor="end" x="-15" y="-239.8274410927538">
3.01421
</text>
<text dominant-baseline="middle" font-size="12" text-anchor="end" x="-15" y="-299.78443395220796">
3.41421
</text>
</g>
<text font-size="12" text-anchor="middle" transform="rotate(-90 -84 -170)" x="-84" y="-182">

</text>
</g>
</g>
</svg>